<svg xmlns="http://www.w3.org/2000/svg" viewBox="0 0 1024 190" role="img" aria-labelledby="title desc">
  <title id="title">EnglishRoad English Level Check</title>
  <desc id="desc">An olive EnglishRoad header for the English Level Check tool.</desc>
  <defs>
    <linearGradient id="bg" x1="0" y1="0" x2="1" y2="1">
      <stop offset="0" stop-color="#fffdf2"/>
      <stop offset="0.58" stop-color="#e9ecd4"/>
      <stop offset="1" stop-color="#f3f1e1"/>
    </linearGradient>
    <linearGradient id="accent" x1="0" y1="0" x2="1" y2="0">
      <stop offset="0" stop-color="#35430f"/>
      <stop offset="1" stop-color="#b88926"/>
    </linearGradient>
    <filter id="cardShadow" x="-20%" y="-20%" width="140%" height="150%">
      <feDropShadow dx="0" dy="10" stdDeviation="8" flood-color="#35430f" flood-opacity="0.18"/>
    </filter>
  </defs>

  <rect width="1024" height="190" rx="20" fill="url(#bg)"/>
  <path d="M760 0H1024V190H694L760 0Z" fill="#d9ddba" opacity="0.62"/>
  <path d="M0 158H1024" stroke="#d1cfab" stroke-width="2" opacity="0.65"/>
  <path d="M42 154H492" stroke="url(#accent)" stroke-width="8" stroke-linecap="round"/>

  <text x="42" y="68" fill="#656948" font-family="Inter, Arial, sans-serif" font-size="34" font-weight="900" letter-spacing="6">ENGLISHROAD</text>
  <text x="42" y="133" fill="#1f2411" font-family="Inter, Arial, sans-serif" font-size="62" font-weight="900" letter-spacing="0">English Level Check</text>

  <g filter="url(#cardShadow)">
    <rect x="700" y="36" width="244" height="124" rx="16" fill="#fffdf2"/>
    <rect x="724" y="59" width="96" height="11" rx="5.5" fill="#6f7f2a" opacity="0.28"/>
    <rect x="724" y="84" width="172" height="9" rx="4.5" fill="#d1cfab"/>
    <rect x="724" y="108" width="132" height="9" rx="4.5" fill="#d1cfab" opacity="0.74"/>
    <rect x="724" y="132" width="74" height="14" rx="7" fill="#6f7f2a"/>
    <rect x="810" y="132" width="52" height="14" rx="7" fill="#b88926" opacity="0.8"/>
    <g transform="translate(856 54)">
      <circle cx="34" cy="34" r="34" fill="#6f7f2a"/>
      <path d="M20 36l10 10 20-25" fill="none" stroke="#fffdf2" stroke-width="7" stroke-linecap="round" stroke-linejoin="round"/>
    </g>
  </g>

  <g opacity="0.66">
    <rect x="618" y="58" width="56" height="12" rx="6" fill="#d1cfab"/>
    <rect x="640" y="82" width="34" height="12" rx="6" fill="#b88926"/>
    <rect x="604" y="106" width="70" height="12" rx="6" fill="#d1cfab"/>
  </g>
</svg>
